<svg width="143" height="84" viewBox="0 0 143 84" fill="none" xmlns="http://www.w3.org/2000/svg">
<path d="M113.978 82.4471C119.101 82.4471 123.254 78.1138 123.254 72.7683C123.254 67.4227 119.101 63.0894 113.978 63.0894C108.854 63.0894 104.701 67.4227 104.701 72.7683C104.701 78.1138 108.854 82.4471 113.978 82.4471Z" stroke="#C31631" stroke-width="2.30692" stroke-miterlimit="10" stroke-linecap="round" stroke-linejoin="round"/>
<path d="M113.978 18.766C111.639 17.172 107.628 18.9266 105.024 22.6995C102.431 26.4725 102.224 30.8188 104.563 32.4243" stroke="#C31631" stroke-width="2.30692" stroke-miterlimit="10" stroke-linecap="round" stroke-linejoin="round"/>
<path d="M99.6887 74.6835L40.7579 75.0504C40.7579 75.0504 41.0229 57.7798 27.9784 57.688C14.9338 57.5963 12.3065 68.5596 13.9659 75.2339C14.1387 77.3325 2.14281 74.133 1.79711 70.7614C1.86625 70.4977 -0.565193 56.6903 7.3975 51.3004C7.3975 51.3004 14.1733 46.7018 36.3559 45.9105C36.3559 45.9105 58.6538 31.8394 62.7446 31.7247C66.9506 29.9587 116.951 26.9082 129.027 30.8876C133.314 31.6674 128.359 32.8257 127.829 32.9403C127.829 32.9403 138.05 42.8027 138.984 45.2454C139.514 47.3211 139.214 55.5435 139.156 55.8991C139.214 57.7224 141.553 61.9885 141.553 63.7546C141.553 63.7546 142.256 74.1101 126.838 72.9518C126.665 69.7293 126.458 62.7798 118.967 59.3394C114.266 57.172 108.746 58.0321 105.024 61.7247C102.593 64.1215 100.507 68.055 100.057 74.477" stroke="#C31631" stroke-width="2.30692" stroke-miterlimit="10" stroke-linecap="round" stroke-linejoin="round"/>
<path d="M119.221 38.2385C119.221 38.2385 110.728 44.6375 107.49 45.0045C104.252 45.3715 58.5848 49.11 47.7528 47.0458" stroke="#C31631" stroke-width="2.30692" stroke-miterlimit="10" stroke-linecap="round" stroke-linejoin="round"/>
<path d="M26.8605 82.4471C31.9837 82.4471 36.1369 78.1138 36.1369 72.7683C36.1369 67.4227 31.9837 63.0894 26.8605 63.0894C21.7373 63.0894 17.5842 67.4227 17.5842 72.7683C17.5842 78.1138 21.7373 82.4471 26.8605 82.4471Z" stroke="#C31631" stroke-width="2.30692" stroke-miterlimit="10" stroke-linecap="round" stroke-linejoin="round"/>
<path d="M14.8417 52.2178C15.0146 52.4931 11.2464 57.7912 3.28369 57.9747" stroke="#C31631" stroke-width="2.30692" stroke-miterlimit="10" stroke-linecap="round" stroke-linejoin="round"/>
<path d="M130.86 41.0366C130.86 41.6444 125.49 45.7843 125.49 46.5182C125.49 47.2522 128.935 48.8348 129.338 49.0182C129.742 49.2017 137.105 49.1444 138.857 47.9173" stroke="#C31631" stroke-width="2.30692" stroke-miterlimit="10" stroke-linecap="round" stroke-linejoin="round"/>
<path d="M112.169 22.8027L122.079 22.539L121.998 22.4587L134.351 11.4266L125.847 1.99997L113.494 13.0206L112.169 22.8027Z" stroke="#C31631" stroke-width="2.30692" stroke-miterlimit="10" stroke-linecap="round" stroke-linejoin="round"/>
<path d="M116.329 18.1812C119.463 20.5435 118.887 26.5412 115.05 31.5756C111.212 36.6101 105.566 38.7775 102.432 36.4151" stroke="#C31631" stroke-width="2.30692" stroke-miterlimit="10" stroke-linecap="round" stroke-linejoin="round"/>
</svg>
