<svg width="118" height="82" viewBox="0 0 118 82" fill="none" xmlns="http://www.w3.org/2000/svg">
<path d="M43.477 43.7638C43.477 33.0757 34.2122 24.406 22.7809 24.406C11.3497 24.406 2.08484 33.0757 2.08484 43.7638C2.08484 47.0092 2.93757 50.0596 4.44714 52.7431C4.47019 52.8005 4.49324 52.8463 4.52781 52.9037L4.5739 52.984C4.83894 53.4312 5.1155 53.867 5.41511 54.2913L13.205 66.4587L21.9397 80.1055C22.32 80.6904 23.2303 80.6904 23.5991 80.1055L32.3339 66.4587L39.8702 54.6927C42.1518 51.5849 43.477 47.8234 43.477 43.7638Z" stroke="#C31631" stroke-width="2.30692" stroke-miterlimit="10" stroke-linejoin="round"/>
<path d="M22.7923 58.2247C30.4357 58.2247 36.6319 52.0583 36.6319 44.4517C36.6319 36.8452 30.4357 30.6788 22.7923 30.6788C15.1489 30.6788 8.95264 36.8452 8.95264 44.4517C8.95264 52.0583 15.1489 58.2247 22.7923 58.2247Z" stroke="#C31631" stroke-width="2.30692" stroke-miterlimit="10" stroke-linejoin="round"/>
<path d="M116.823 18.844C116.823 12.0091 110.9 6.47012 103.606 6.47012C96.3118 6.47012 90.3887 12.0091 90.3887 18.844C90.3887 20.9197 90.9303 22.8692 91.8983 24.5779C91.9098 24.6123 91.9213 24.6467 91.9444 24.6811L91.979 24.727C92.1403 25.0137 92.3247 25.2889 92.5206 25.5642L97.4872 33.3394L103.065 42.055C103.307 42.4334 103.883 42.4334 104.125 42.055L109.702 33.3394L114.519 25.8165C115.971 23.8325 116.823 21.4357 116.823 18.844Z" stroke="#C31631" stroke-width="2.30692" stroke-miterlimit="10" stroke-linejoin="round"/>
<path d="M103.606 28.0871C108.494 28.0871 112.456 24.1439 112.456 19.2797C112.456 14.4156 108.494 10.4724 103.606 10.4724C98.7187 10.4724 94.7564 14.4156 94.7564 19.2797C94.7564 24.1439 98.7187 28.0871 103.606 28.0871Z" stroke="#C31631" stroke-width="2.30692" stroke-miterlimit="10" stroke-linejoin="round"/>
<path d="M62.5023 8.86691C62.5023 4.52058 58.7341 0.999939 54.0901 0.999939C49.4462 0.999939 45.678 4.52058 45.678 8.86691C45.678 10.1857 46.0237 11.4242 46.6345 12.5137C46.646 12.5366 46.6575 12.5596 46.6691 12.571L46.6921 12.6054C46.7958 12.7889 46.911 12.9609 47.0378 13.1444L50.2067 18.0871L53.756 23.6261C53.9058 23.8669 54.2745 23.8669 54.4359 23.6261L57.9851 18.0871L61.0503 13.305C61.9607 12.0435 62.5023 10.5183 62.5023 8.86691Z" stroke="#C31631" stroke-width="1.73019" stroke-miterlimit="10" stroke-linejoin="round"/>
<path d="M54.0902 14.2453C56.9223 14.2453 59.2181 11.9605 59.2181 9.14212C59.2181 6.3237 56.9223 4.03891 54.0902 4.03891C51.2581 4.03891 48.9623 6.3237 48.9623 9.14212C48.9623 11.9605 51.2581 14.2453 54.0902 14.2453Z" stroke="#C31631" stroke-width="1.84554" stroke-miterlimit="10" stroke-linejoin="round"/>
<path d="M50.3103 26.4701C29.4183 30.8738 132.876 44.0275 88.8562 45.9655C88.8562 45.9655 8.61851 53.2362 102.926 67.1582C118.794 69.4977 82.7718 74.8532 27.7935 80.6215" stroke="#C31631" stroke-width="2.30692" stroke-miterlimit="10" stroke-linecap="round" stroke-linejoin="round"/>
</svg>
