<svg width="88" height="90" viewBox="0 0 88 90" fill="none" xmlns="http://www.w3.org/2000/svg">
<path d="M40.1503 2V13.2844H53.4714" fill="white"/>
<path d="M40.1503 2V13.2844H53.4714" stroke="#C31631" stroke-width="2.30692" stroke-miterlimit="10" stroke-linecap="round" stroke-linejoin="round"/>
<path d="M16.3309 26.2087H45.8425" stroke="#C31631" stroke-width="2.30692" stroke-miterlimit="10" stroke-linecap="round" stroke-linejoin="round"/>
<path d="M16.3309 35.1995H45.8425" stroke="#C31631" stroke-width="2.30692" stroke-miterlimit="10" stroke-linecap="round" stroke-linejoin="round"/>
<path d="M16.3309 44.179H45.8425" stroke="#C31631" stroke-width="2.30692" stroke-miterlimit="10" stroke-linecap="round" stroke-linejoin="round"/>
<path d="M16.3309 53.7662H45.8425" stroke="#C31631" stroke-width="2.30692" stroke-miterlimit="10" stroke-linecap="round" stroke-linejoin="round"/>
<path d="M16.3309 62.7455H45.8425" stroke="#C31631" stroke-width="2.30692" stroke-miterlimit="10" stroke-linecap="round" stroke-linejoin="round"/>
<path d="M16.3309 71.7362H45.8425" stroke="#C31631" stroke-width="2.30692" stroke-miterlimit="10" stroke-linecap="round" stroke-linejoin="round"/>
<path d="M10.4999 26.2087H10.5803" stroke="#C31631" stroke-width="2.30692" stroke-miterlimit="10" stroke-linecap="round" stroke-linejoin="round"/>
<path d="M10.4999 35.1995H10.5803" stroke="#C31631" stroke-width="2.30692" stroke-miterlimit="10" stroke-linecap="round" stroke-linejoin="round"/>
<path d="M10.4999 44.179H10.5803" stroke="#C31631" stroke-width="2.30692" stroke-miterlimit="10" stroke-linecap="round" stroke-linejoin="round"/>
<path d="M10.4999 53.7662H10.5803" stroke="#C31631" stroke-width="2.30692" stroke-miterlimit="10" stroke-linecap="round" stroke-linejoin="round"/>
<path d="M10.4999 62.7455H10.5803" stroke="#C31631" stroke-width="2.30692" stroke-miterlimit="10" stroke-linecap="round" stroke-linejoin="round"/>
<path d="M10.4999 71.7362H10.5803" stroke="#C31631" stroke-width="2.30692" stroke-miterlimit="10" stroke-linecap="round" stroke-linejoin="round"/>
<path d="M54.1509 81.5757H1.29285V2H40.1499L46.8104 7.6422L53.471 13.2844L54.1509 81.5757Z" stroke="#C31631" stroke-width="2.30692" stroke-miterlimit="10" stroke-linecap="round" stroke-linejoin="round"/>
<path d="M85.4252 66.0826C85.4252 78.3303 75.4459 88.2615 63.1389 88.2615C50.8318 88.2615 40.8525 78.3303 40.8525 66.0826C40.8525 53.8349 50.8318 43.9037 63.1389 43.9037C75.4459 43.9037 85.4252 53.8349 85.4252 66.0826Z" fill="white"/>
<path d="M63.127 88.2617C75.4354 88.2617 85.4133 78.3319 85.4133 66.0828C85.4133 53.8338 75.4354 43.9039 63.127 43.9039C50.8186 43.9039 40.8407 53.8338 40.8407 66.0828C40.8407 78.3319 50.8186 88.2617 63.127 88.2617Z" stroke="#C31631" stroke-width="3.46038" stroke-miterlimit="10" stroke-linecap="round" stroke-linejoin="round"/>
<path d="M56.2708 66.1858C58.4256 68.3189 62.286 74.2134 62.4358 74.1904C62.6202 74.1675 64.8903 65.1193 69.2922 60.3257" fill="white"/>
<path d="M56.2708 66.1858C58.4256 68.3189 62.286 74.2134 62.4358 74.1904C62.6202 74.1675 64.8903 65.1193 69.2922 60.3257" stroke="#C31631" stroke-width="3.46038" stroke-miterlimit="10" stroke-linecap="round" stroke-linejoin="round"/>
</svg>
