<svg width="106" height="75" viewBox="0 0 106 75" fill="none" xmlns="http://www.w3.org/2000/svg">
<path d="M60.4843 28.1835C60.4843 28.1835 85.8589 28.6422 90.4222 27.5298C91.7474 27.2087 96.0571 22.5183 96.0571 22.5183C96.0571 22.5183 95.4925 26.4633 96.8062 26.8761C98.1083 27.289 99.6064 26.5092 99.6064 26.5092C99.6064 26.5092 102.211 32.8968 98.5347 33.8257C96.0226 34.4564 90.1802 36.3486 86.7462 37.4839C85.2366 37.9885 83.8769 38.8486 82.7591 39.9839C81.8257 40.9358 80.4198 42.0596 78.6222 42.5871C75.6376 43.4587 60.8185 43.3784 60.8185 43.3784" stroke="#C31631" stroke-width="1.73019" stroke-miterlimit="10" stroke-linecap="round" stroke-linejoin="round"/>
<path d="M60.83 40.3853C60.83 40.3853 66.7184 40.5459 69.2421 39.8463C72.4802 38.9518 77.7925 28.6078 82.3096 28.2293" stroke="#C31631" stroke-width="1.73019" stroke-miterlimit="10" stroke-linecap="round" stroke-linejoin="round"/>
<path d="M103.305 48.0572C103.305 48.0572 103.513 67.3691 101.646 69.3187C99.7792 71.2682 91.0099 70.5228 90.3646 69.8806C89.7192 69.2269 89.8114 65.087 89.8114 65.087" stroke="#C31631" stroke-width="1.73019" stroke-miterlimit="10" stroke-linecap="round" stroke-linejoin="round"/>
<path d="M60.4843 51.3829C60.4843 51.3829 80.005 51.4632 81.1573 51.6008C85.8704 52.1857 90.7333 57.0595 93.8216 57.3806C99.0993 57.9426 102.395 56.4517 102.395 56.4517" stroke="#C31631" stroke-width="1.73019" stroke-miterlimit="10" stroke-linecap="round" stroke-linejoin="round"/>
<path d="M27.4352 18.7683C27.4352 18.7683 36.9881 4.9036 38.6821 3.2981C38.7512 3.22929 38.8204 3.17195 38.8895 3.10314C41.2057 0.77516 42.819 1.89901 43.1647 2.19718C43.2108 2.24305 43.2799 2.26598 43.3376 2.25452C43.3376 2.25452 57.2118 1.92195 61.268 1.91048C65.8313 1.88754 79.5442 2.25452 79.5442 2.25452C79.6133 2.25452 79.6709 2.23158 79.717 2.19718C80.0627 1.89901 81.676 0.77516 83.9922 3.10314C84.0614 3.17195 84.1305 3.24076 84.1997 3.2981C85.6516 4.67424 92.9344 15.133 94.9395 18.0229C95.0778 18.2293 95.412 18.1261 95.412 17.8738C95.4235 16.7155 95.6424 14.766 96.9907 14.2614C98.8575 13.5504 103.709 14.9839 104.181 15.133C104.204 15.1444 104.239 15.1559 104.262 15.1674C104.469 15.3279 105.334 16.2797 103.444 19.938C103.432 19.9495 103.432 19.9724 103.421 19.9839C103.006 20.4999 102.107 20.821 97.9817 20.7637C97.7627 20.7637 97.636 21.016 97.7743 21.188C98.6155 22.2086 100.793 24.9151 102.591 27.6215C104.873 31.0504 104.366 43.8944 102.729 51.2224V51.2339C101.612 58.321 101.473 62.4495 100.598 63.1261C99.7332 63.8027 94.8819 66.532 87.4838 64.055C80.0858 61.5779 55.1491 62.7018 52.4411 63.1031" stroke="#C31631" stroke-width="1.73019" stroke-miterlimit="10" stroke-linecap="round" stroke-linejoin="round"/>
<path d="M62.328 18.4587L31.4106 18.2293C31.3761 17.2431 40.1108 4.58251 41.5282 4.5137C42.2887 4.46783 60.9567 4.20407 61.1411 4.20407C63.5034 4.27288 80.5927 4.46783 81.3647 4.5137C82.7821 4.59398 91.2634 16.5665 91.2634 17.5642C91.2403 19.1238 62.328 18.4587 62.328 18.4587Z" stroke="#C31631" stroke-width="1.73019" stroke-miterlimit="10" stroke-linecap="round" stroke-linejoin="round"/>
<path d="M62.4087 28.1834C62.4087 28.1834 37.0341 28.6422 32.4708 27.5298C31.4337 27.2775 28.5528 24.3302 27.3544 23.0802C27.1815 22.9082 26.8935 23.0344 26.905 23.2752C26.9972 24.4449 27.0202 26.5779 26.0868 26.8761C25.1073 27.1857 24.0126 26.8302 23.5401 26.6238C23.4019 26.5665 23.2405 26.6353 23.1944 26.7729C22.7565 27.977 21.1317 33.0114 24.3698 33.8256C26.905 34.4678 32.7935 36.3715 36.2159 37.5068C37.6909 38 39.0276 38.8486 40.1108 39.961C41.0442 40.9243 42.4616 42.0596 44.2708 42.5871C47.2554 43.4587 62.0745 43.3784 62.0745 43.3784" stroke="#C31631" stroke-width="1.73019" stroke-miterlimit="10" stroke-linecap="round" stroke-linejoin="round"/>
<path d="M62.0629 40.3853C62.0629 40.3853 56.1744 40.5459 53.6508 39.8463C50.4127 38.9518 45.1004 28.6078 40.5832 28.2293" stroke="#C31631" stroke-width="1.73019" stroke-miterlimit="10" stroke-linecap="round" stroke-linejoin="round"/>
<path d="M62.4088 51.3829C62.4088 51.3829 42.8881 51.4632 41.7358 51.6008C37.0227 52.1857 32.1598 57.0595 29.0715 57.3806C23.7938 57.9426 20.4981 56.4517 20.4981 56.4517" stroke="#C31631" stroke-width="1.73019" stroke-miterlimit="10" stroke-linecap="round" stroke-linejoin="round"/>
<path d="M60.1501 44.4793C60.1501 60.2706 47.2784 73.0802 31.4106 73.0802C15.5429 73.0802 2.67117 60.2706 2.67117 44.4793C2.67117 28.688 15.5429 15.8784 31.4106 15.8784C47.2784 15.8784 60.1501 28.6765 60.1501 44.4793Z" fill="white"/>
<path d="M31.4106 73.0802C47.283 73.0802 60.1501 60.2751 60.1501 44.4793C60.1501 28.6834 47.283 15.8784 31.4106 15.8784C15.5383 15.8784 2.67117 28.6834 2.67117 44.4793C2.67117 60.2751 15.5383 73.0802 31.4106 73.0802Z" stroke="#C31631" stroke-width="3.46038" stroke-miterlimit="10" stroke-linecap="round" stroke-linejoin="round"/>
<path d="M19.092 43.8142C22.5951 47.266 28.8523 56.8302 29.0943 56.7958C29.3939 56.7499 33.0814 42.0825 40.226 34.3073" fill="white"/>
<path d="M19.092 43.8142C22.5951 47.266 28.8523 56.8302 29.0943 56.7958C29.3939 56.7499 33.0814 42.0825 40.226 34.3073" stroke="#C31631" stroke-width="3.46038" stroke-miterlimit="10" stroke-linecap="round" stroke-linejoin="round"/>
</svg>
